<svg width="80" height="95" viewBox="0 0 80 95" fill="none" xmlns="http://www.w3.org/2000/svg">
<path d="M1.5 1.5H58.3393L78.5 22.051V93.5H1.5V1.5Z" fill="url(#paint0_linear_21_968)" stroke="#257384" stroke-width="3"/>
<path d="M60.0569 20.3584V3.67099L76.4274 20.3584H60.0569Z" fill="white" stroke="#257384" stroke-width="3"/>
<path d="M14.8452 23.9347C14.8452 22.4275 16.067 21.2057 17.5742 21.2057H46.7554C48.2626 21.2057 49.4844 22.4275 49.4844 23.9347C49.4844 25.4418 48.2626 26.6636 46.7554 26.6636H17.5742C16.067 26.6636 14.8452 25.4418 14.8452 23.9347Z" fill="#396B76"/>
<path d="M14.8452 62.6072C14.8452 61.1001 16.067 59.8783 17.5742 59.8783H58.3018C59.809 59.8783 61.0308 61.1001 61.0308 62.6072C61.0308 64.1144 59.809 65.3362 58.3018 65.3362H17.5742C16.067 65.3362 14.8452 64.1144 14.8452 62.6072Z" fill="#396B76"/>
<rect x="14.8452" y="33.8163" width="46.1856" height="5.45794" rx="2.72897" fill="#396B76"/>
<rect x="14.8452" y="72.4889" width="28.0412" height="5.45794" rx="2.72897" fill="#396B76"/>
<rect x="14.8452" y="46.4269" width="33.8144" height="5.45794" rx="2.72897" fill="#396B76"/>
<defs>
<linearGradient id="paint0_linear_21_968" x1="26.3252" y1="110.978" x2="72.9001" y2="-3.02184" gradientUnits="userSpaceOnUse">
<stop stop-color="white"/>
<stop offset="1" stop-color="#CDE9F0"/>
</linearGradient>
</defs>
</svg>
